<svg width="392" height="398" viewBox="0 0 392 398" fill="none" xmlns="http://www.w3.org/2000/svg">
<g clip-path="url(#clip0_3594_29511)">
<path d="M436 -41H-44V439H436V-41Z" fill="#423DF9"/>
<path d="M205.229 117.65C211.069 117.65 215.229 120.27 217.689 125.5H217.67L290.14 280.36H257.83C251.22 280.36 246.83 277.74 244.68 272.51L196.68 157.35H195.3L174.776 207.911H201.83L212.39 233.24H164.376C162.096 238.8 160.221 243.369 159.99 243.89L147.3 272.51C145.15 277.75 140.759 280.36 134.149 280.36H101.84L174.54 125.5C177 120.27 181.15 117.65 187 117.65H205.229Z" fill="white"/>
</g>
<defs>
<clipPath id="clip0_3594_29511">
<rect width="392" height="398" fill="white"/>
</clipPath>
</defs>
</svg>
